<svg width="128" height="128" viewBox="0 0 128 128" fill="none" xmlns="http://www.w3.org/2000/svg">
<g clip-path="url(#clip0_1_2)">
<path d="M2 7C2 4.23858 4.23858 2 7 2H121C123.761 2 126 4.23858 126 7V121C126 123.761 123.761 126 121 126H7C4.23858 126 2 123.761 2 121V7Z" fill="#DEDEDE" stroke="black" stroke-width="5"/>
<path d="M19.288 63V17.56H34.008C42.968 17.56 49.7307 19.4587 54.296 23.256C58.8613 27.0533 61.144 32.6853 61.144 40.152C61.144 44.6747 60.12 48.6427 58.072 52.056C56.024 55.4693 53.1653 58.1573 49.496 60.12C45.8267 62.04 41.5813 63 36.76 63H19.288ZM29.72 53.72H36.312C40.9627 53.72 44.4827 52.6107 46.872 50.392C49.304 48.1307 50.52 44.824 50.52 40.472C50.52 35.864 49.2613 32.4507 46.744 30.232C44.2693 27.9707 40.4507 26.84 35.288 26.84H29.72V53.72ZM88.6535 63.64C83.8748 63.6827 79.7788 62.808 76.3655 61.016C72.9522 59.224 70.3282 56.6427 68.4935 53.272C66.6588 49.9013 65.7415 45.848 65.7415 41.112C65.7415 36.376 66.7015 32.1947 68.6215 28.568C70.5842 24.8987 73.3362 22.04 76.8775 19.992C80.4188 17.944 84.6215 16.92 89.4855 16.92C93.7948 16.92 97.5708 17.8587 100.814 19.736C104.056 21.6133 106.574 24.2373 108.366 27.608C110.2 30.936 111.118 34.8613 111.118 39.384C111.118 44.248 110.158 48.4933 108.238 52.12C106.318 55.7467 103.651 58.5627 100.238 60.568C96.8668 62.5733 93.0055 63.5973 88.6535 63.64ZM88.2695 54.36C91.8962 54.36 94.8402 53.0587 97.1015 50.456C99.3628 47.8107 100.494 44.1627 100.494 39.512C100.494 35.4587 99.4695 32.2373 97.4215 29.848C95.3735 27.416 92.6215 26.2 89.1655 26.2C86.6482 26.2 84.4295 26.8187 82.5095 28.056C80.5895 29.2933 79.0748 31.0213 77.9655 33.24C76.8988 35.416 76.3655 37.976 76.3655 40.92C76.3655 45.1867 77.4108 48.4933 79.5015 50.84C81.6348 53.1867 84.5575 54.36 88.2695 54.36Z" fill="black"/>
<path d="M19.288 113V67.56H29.72V113H19.288ZM84.816 67.56L83.472 76.712H69.712V113H59.216V76.712H44.816V67.56H84.816ZM100.291 97.64L98.563 65.64H109.699L107.011 97.64H100.291ZM103.683 113.64C101.848 113.64 100.355 113.085 99.203 111.976C98.051 110.867 97.475 109.437 97.475 107.688C97.475 105.981 98.051 104.573 99.203 103.464C100.355 102.355 101.848 101.8 103.683 101.8C105.518 101.8 107.011 102.355 108.163 103.464C109.315 104.573 109.891 105.981 109.891 107.688C109.891 109.437 109.315 110.867 108.163 111.976C107.011 113.085 105.518 113.64 103.683 113.64Z" fill="black"/>
</g>
<defs>
<clipPath id="clip0_1_2">
<rect width="128" height="128" fill="white"/>
</clipPath>
</defs>
</svg>
