<svg width="128" height="128" viewBox="0 0 128 128" fill="none" xmlns="http://www.w3.org/2000/svg">
<path d="M63.9049 13.2927C63.9348 13.2006 64.0652 13.2006 64.0951 13.2927L76.5503 51.6259C76.5637 51.6671 76.6021 51.695 76.6454 51.695H116.951C117.048 51.695 117.089 51.819 117.01 51.8759L84.402 75.5672C84.3669 75.5927 84.3523 75.6378 84.3656 75.679L96.8209 114.012C96.8508 114.104 96.7454 114.181 96.667 114.124L64.0588 90.4328C64.0237 90.4073 63.9763 90.4073 63.9412 90.4328L31.333 114.124C31.2546 114.181 31.1492 114.104 31.1791 114.012L43.6344 75.679C43.6477 75.6378 43.6331 75.5927 43.598 75.5672L10.9898 51.8759C10.9115 51.819 10.9517 51.695 11.0486 51.695H51.3546C51.3979 51.695 51.4363 51.6671 51.4497 51.6259L63.9049 13.2927Z" fill="#FFDA1A" stroke="#303030" stroke-width="16"/>
</svg>
